<svg xmlns="http://www.w3.org/2000/svg">
    
    <symbol id="icon-like"  viewBox="0 0 16 14">
        <path d="M8.34372 2.25572H8.36529C9.29718 1.44175 11.7563 0.165765 13.9565 1.76734C17.3111 4.20921 14.2458 9.5 8.36529 13H8.34372M8.34378 2.25572H8.32221C7.39032 1.44175 4.93121 0.165765 2.73102 1.76734C-0.623552 4.20921 2.44172 9.5 8.32221 13H8.34378"/>
    </symbol>
    
    <symbol id="icon-dislike"  viewBox="0 0 16 15">
        <path d="M8.34372 3.25572H8.36529C9.29718 2.44175 11.7563 1.16576 13.9565 2.76734C17.3111 5.20921 14.2458 10.5 8.36529 14H8.34372M8.34378 3.25572H8.32221C7.39032 2.44175 4.93121 1.16576 2.73102 2.76734C-0.623552 5.20921 2.44172 10.5 8.32221 14H8.34378" />
        <path d="M1 1L15 13.5" />
    </symbol>
    <symbol id="icon-delete" viewBox="0 0 16 15">
        <path d="M8.34372 2.25572H8.36529C9.29718 1.44175 11.7563 0.165765 13.9565 1.76734C17.3111 4.20921 14.2458 9.5 8.36529 13H8.34372M8.34378 2.25572H8.32221C7.39032 1.44175 4.93121 0.165765 2.73102 1.76734C-0.623552 4.20921 2.44172 9.5 8.32221 13H8.34378"/>

        <!-- <path d="M22.6066 21.3934C22.2161 21.0029 21.5829 21.0029 21.1924 21.3934C20.8019 21.7839 20.8019 22.4171 21.1924 22.8076L22.6066 21.3934ZM40.9914 42.6066C41.3819 42.9971 42.0151 42.9971 42.4056 42.6066C42.7961 42.2161 42.7961 41.5829 42.4056 41.1924L40.9914 42.6066ZM21.1924 41.1924C20.8019 41.5829 20.8019 42.2161 21.1924 42.6066C21.5829 42.9971 22.2161 42.9971 22.6066 42.6066L21.1924 41.1924ZM42.4056 22.8076C42.7961 22.4171 42.7961 21.7839 42.4056 21.3934C42.0151 21.0029 41.3819 21.0029 40.9914 21.3934L42.4056 22.8076ZM21.1924 22.8076L40.9914 42.6066L42.4056 41.1924L22.6066 21.3934L21.1924 22.8076ZM22.6066 42.6066L42.4056 22.8076L40.9914 21.3934L21.1924 41.1924L22.6066 42.6066Z" fill="black"/> -->
    </symbol>

</svg>